<svg width="299" height="24" viewBox="0 0 299 24" fill="none" xmlns="http://www.w3.org/2000/svg">
<g clip-path="url(#clip0_1285_1006)">
<path d="M24.6076 10.2984L22.8744 6.13837C22.6888 5.69076 22.2516 5.39915 21.7667 5.39995H1.89995C1.23714 5.4 0.699951 5.93718 0.699951 6.6V15.4C0.699951 16.0628 1.23714 16.6 1.89995 16.6H23.5C24.1628 16.6 24.7 16.0628 24.7 15.4V10.76C24.7004 10.6016 24.6687 10.4444 24.6076 10.2984Z" fill="#FDC536"/>
<path d="M14.6999 7.40002H10.7V16.6H14.6999V7.40002Z" fill="#FEE8AF"/>
<path d="M24.6076 10.2984L23.0152 6.47681C21.1508 11.128 17.4372 14.7952 12.7624 16.6H23.5C24.1628 16.6 24.7 16.0628 24.7 15.4V10.76C24.7004 10.6016 24.6687 10.4444 24.6076 10.2984Z" fill="#FDD15E"/>
<path d="M23.8999 10.2H19.9V7.8H22.882L23.8999 10.2Z" fill="#3CB2CA"/>
<path d="M5.49998 7.8H3.09998V10.2H5.49998V7.8Z" fill="#3CB2CA"/>
<path d="M6.69993 13.8C8.0255 13.8 9.09993 14.8744 9.09993 16.2C9.09993 17.5256 8.0255 18.6 6.69993 18.6C5.37435 18.6 4.29993 17.5256 4.29993 16.2C4.29993 14.8744 5.37435 13.8 6.69993 13.8Z" fill="#42210B"/>
<path d="M18.6999 13.8C20.0255 13.8 21.0999 14.8744 21.0999 16.2C21.0999 17.5256 20.0255 18.6 18.6999 18.6C17.3743 18.6 16.2999 17.5256 16.2999 16.2C16.2999 14.8744 17.3743 13.8 18.6999 13.8Z" fill="#42210B"/>
<path d="M6.69998 15.4C7.14196 15.4 7.49999 15.758 7.49999 16.2C7.49999 16.642 7.14201 17 6.69998 17C6.25799 17 5.89996 16.642 5.89996 16.2C5.89996 15.758 6.25799 15.4 6.69998 15.4Z" fill="#FDC536"/>
<path d="M18.7 15.4C19.142 15.4 19.5 15.758 19.5 16.2C19.5 16.642 19.142 17 18.7 17C18.258 17 17.9 16.642 17.9 16.2C17.9 15.758 18.258 15.4 18.7 15.4Z" fill="#FDC536"/>
<path d="M10.6999 11.8H0.699951V12.6H10.6999V11.8Z" fill="#E65848"/>
<path d="M24.6999 11.8H14.7V12.6H24.6999V11.8Z" fill="#E65848"/>
<path d="M3.53479 10.2H5.49998V7.8H5.12957C4.7332 8.682 4.19437 9.4928 3.53479 10.2Z" fill="#0B9FBD"/>
<path d="M8.69999 7.8H6.29999V10.2H8.69999V7.8Z" fill="#3CB2CA"/>
<path d="M6.73474 10.2H8.69993V7.8H8.32952C7.93315 8.682 7.39437 9.4928 6.73474 10.2Z" fill="#0B9FBD"/>
<path d="M19.1 7.8H16.7V10.2H19.1V7.8Z" fill="#3CB2CA"/>
<path d="M17.1348 10.2H19.1V7.8H18.7295C18.3332 8.682 17.7944 9.4928 17.1348 10.2Z" fill="#0B9FBD"/>
<path d="M22.4244 7.8C22.0083 8.63602 21.5276 9.43843 20.9868 10.2H23.8999L22.882 7.8H22.4244Z" fill="#0B9FBD"/>
<path d="M10.7 14.8492V16.6H14.6999V9.68799C14.0408 11.8388 12.618 13.6744 10.7 14.8492Z" fill="#FDF5C9"/>
</g>
<path d="M33.592 8.26693V7.21591H40.9301V8.26693H37.8535V17H36.6687V8.26693H33.592ZM41.8438 17V9.66193H42.933V10.7703H43.0095C43.1432 10.4072 43.3853 10.1126 43.7356 9.88647C44.086 9.66034 44.4809 9.54727 44.9204 9.54727C45.0032 9.54727 45.1067 9.54887 45.2309 9.55205C45.3552 9.55524 45.4491 9.56001 45.5128 9.56638V10.713C45.4746 10.7034 45.387 10.6891 45.2501 10.67C45.1163 10.6477 44.9746 10.6365 44.8249 10.6365C44.4682 10.6365 44.1497 10.7114 43.8694 10.8611C43.5923 11.0076 43.3725 11.2114 43.2101 11.4726C43.0509 11.7305 42.9712 12.0251 42.9712 12.3564V17H41.8438ZM47.7988 19.7518C47.6077 19.7518 47.4373 19.7359 47.2876 19.704C47.1379 19.6753 47.0344 19.6467 46.9771 19.618L47.2637 18.6243C47.5376 18.6944 47.7797 18.7199 47.9899 18.7008C48.2001 18.6816 48.3864 18.5877 48.5488 18.4189C48.7145 18.2533 48.8657 17.9841 49.0027 17.6115L49.2129 17.0382L46.4993 9.66193H47.7224L49.748 15.5095H49.8244L51.85 9.66193H53.073L49.9582 18.0701C49.818 18.4491 49.6445 18.7629 49.4374 19.0113C49.2304 19.2629 48.99 19.4492 48.716 19.5702C48.4453 19.6913 48.1396 19.7518 47.7988 19.7518ZM58.4978 7.21591H59.9119L63.2369 15.3375H63.3516L66.6766 7.21591H68.0907V17H66.9824V9.56638H66.8868L63.8293 17H62.7592L59.7017 9.56638H59.6061V17H58.4978V7.21591ZM70.3134 17V9.66193H71.4409V17H70.3134ZM70.8867 8.43892C70.667 8.43892 70.4774 8.36407 70.3182 8.21438C70.1621 8.06469 70.0841 7.88474 70.0841 7.67454C70.0841 7.46433 70.1621 7.28438 70.3182 7.13469C70.4774 6.985 70.667 6.91016 70.8867 6.91016C71.1065 6.91016 71.2944 6.985 71.4504 7.13469C71.6097 7.28438 71.6893 7.46433 71.6893 7.67454C71.6893 7.88474 71.6097 8.06469 71.4504 8.21438C71.2944 8.36407 71.1065 8.43892 70.8867 8.43892ZM74.6334 12.5857V17H73.5059V9.66193H74.5952V10.8085H74.6907C74.8627 10.4359 75.1239 10.1365 75.4742 9.91036C75.8245 9.68104 76.2768 9.56638 76.831 9.56638C77.3278 9.56638 77.7626 9.6683 78.1352 9.87214C78.5078 10.0728 78.7977 10.3785 79.0047 10.7894C79.2117 11.1971 79.3152 11.713 79.3152 12.3373V17H78.1878V12.4137C78.1878 11.8372 78.0381 11.3882 77.7387 11.0665C77.4393 10.7416 77.0284 10.5792 76.5061 10.5792C76.1462 10.5792 75.8245 10.6572 75.5411 10.8133C75.2608 10.9693 75.0395 11.1971 74.877 11.4964C74.7146 11.7958 74.6334 12.1589 74.6334 12.5857ZM84.5668 9.66193V10.6174H80.764V9.66193H84.5668ZM81.8723 7.90385H82.9998V14.8979C82.9998 15.2164 83.046 15.4553 83.1383 15.6146C83.2339 15.7706 83.3549 15.8757 83.5014 15.9299C83.6511 15.9808 83.8088 16.0063 83.9744 16.0063C84.0986 16.0063 84.2005 15.9999 84.2801 15.9872C84.3597 15.9713 84.4234 15.9585 84.4712 15.949L84.7005 16.9618C84.6241 16.9904 84.5174 17.0191 84.3804 17.0478C84.2435 17.0796 84.0699 17.0955 83.8597 17.0955C83.5412 17.0955 83.2291 17.0271 82.9233 16.8901C82.6208 16.7532 82.3692 16.5446 82.1685 16.2643C81.971 15.984 81.8723 15.6305 81.8723 15.2037V7.90385ZM86.2627 17V9.66193H87.352V10.7703H87.4284C87.5622 10.4072 87.8042 10.1126 88.1546 9.88647C88.5049 9.66034 88.8999 9.54727 89.3394 9.54727C89.4222 9.54727 89.5257 9.54887 89.6499 9.55205C89.7741 9.55524 89.8681 9.56001 89.9318 9.56638V10.713C89.8936 10.7034 89.806 10.6891 89.669 10.67C89.5352 10.6477 89.3935 10.6365 89.2438 10.6365C88.8871 10.6365 88.5686 10.7114 88.2883 10.8611C88.0113 11.0076 87.7915 11.2114 87.6291 11.4726C87.4698 11.7305 87.3902 12.0251 87.3902 12.3564V17H86.2627ZM91.2682 17V9.66193H92.3957V17H91.2682ZM91.8415 8.43892C91.6218 8.43892 91.4323 8.36407 91.273 8.21438C91.117 8.06469 91.0389 7.88474 91.0389 7.67454C91.0389 7.46433 91.117 7.28438 91.273 7.13469C91.4323 6.985 91.6218 6.91016 91.8415 6.91016C92.0613 6.91016 92.2492 6.985 92.4053 7.13469C92.5645 7.28438 92.6441 7.46433 92.6441 7.67454C92.6441 7.88474 92.5645 8.06469 92.4053 8.21438C92.2492 8.36407 92.0613 8.43892 91.8415 8.43892ZM95.3016 9.66193L97.0596 12.6621L98.8177 9.66193H100.117L97.7476 13.331L100.117 17H98.8177L97.0596 14.1527L95.3016 17H94.0021L96.3335 13.331L94.0021 9.66193H95.3016ZM102.701 7.21591V10.5792H101.65V7.21591H102.701ZM109.906 11.3054L108.893 11.592C108.83 11.4232 108.736 11.2592 108.611 11.0999C108.49 10.9375 108.325 10.8037 108.115 10.6986C107.904 10.5935 107.635 10.541 107.307 10.541C106.858 10.541 106.484 10.6445 106.184 10.8515C105.888 11.0553 105.74 11.3149 105.74 11.6302C105.74 11.9105 105.842 12.1318 106.046 12.2943C106.25 12.4567 106.568 12.5921 107.001 12.7004L108.091 12.9679C108.747 13.1271 109.236 13.3708 109.557 13.6988C109.879 14.0237 110.04 14.4425 110.04 14.9553C110.04 15.3757 109.919 15.7515 109.677 16.0827C109.438 16.414 109.103 16.6751 108.673 16.8662C108.243 17.0573 107.743 17.1529 107.173 17.1529C106.425 17.1529 105.805 16.9904 105.315 16.6656C104.824 16.3407 104.514 15.8662 104.383 15.2419L105.454 14.9744C105.555 15.3693 105.748 15.6655 106.032 15.863C106.318 16.0604 106.692 16.1592 107.154 16.1592C107.68 16.1592 108.097 16.0477 108.406 15.8248C108.718 15.5986 108.874 15.3279 108.874 15.0126C108.874 14.7578 108.785 14.5444 108.607 14.3724C108.428 14.1973 108.154 14.0667 107.785 13.9807L106.562 13.694C105.89 13.5348 105.396 13.288 105.081 12.9536C104.769 12.616 104.613 12.1939 104.613 11.6875C104.613 11.2735 104.729 10.9072 104.961 10.5887C105.197 10.2703 105.517 10.0202 105.922 9.83869C106.329 9.65715 106.791 9.56638 107.307 9.56638C108.033 9.56638 108.603 9.72563 109.017 10.0441C109.435 10.3626 109.731 10.783 109.906 11.3054ZM116.648 7.21591V17H115.521V7.21591H116.648ZM120.873 17.172C120.408 17.172 119.986 17.0844 119.607 16.9092C119.228 16.7309 118.927 16.4745 118.704 16.1401C118.481 15.8025 118.369 15.3948 118.369 14.9171C118.369 14.4966 118.452 14.1559 118.618 13.8947C118.783 13.6303 119.005 13.4233 119.282 13.2736C119.559 13.1239 119.864 13.0125 120.199 12.9392C120.537 12.8628 120.876 12.8023 121.216 12.7577C121.662 12.7004 122.024 12.6574 122.301 12.6287C122.581 12.5968 122.785 12.5443 122.912 12.471C123.043 12.3978 123.108 12.2704 123.108 12.0888V12.0506C123.108 11.5793 122.979 11.213 122.721 10.9518C122.467 10.6907 122.08 10.5601 121.56 10.5601C121.022 10.5601 120.6 10.6779 120.294 10.9136C119.989 11.1493 119.774 11.4009 119.65 11.6684L118.579 11.2862C118.77 10.8404 119.025 10.4932 119.344 10.2448C119.665 9.99316 120.016 9.81799 120.395 9.71926C120.777 9.61734 121.153 9.56638 121.522 9.56638C121.758 9.56638 122.029 9.59505 122.334 9.65238C122.643 9.70652 122.941 9.81959 123.228 9.99157C123.518 10.1636 123.758 10.4231 123.949 10.7703C124.14 11.1174 124.236 11.5824 124.236 12.1653V17H123.108V16.0063H123.051C122.975 16.1655 122.847 16.3359 122.669 16.5175C122.49 16.699 122.253 16.8535 121.957 16.9809C121.661 17.1083 121.299 17.172 120.873 17.172ZM121.045 16.1592C121.49 16.1592 121.866 16.0716 122.172 15.8964C122.481 15.7213 122.713 15.4951 122.869 15.218C123.029 14.9409 123.108 14.6495 123.108 14.3438V13.3119C123.061 13.3692 122.955 13.4217 122.793 13.4695C122.634 13.5141 122.449 13.5539 122.239 13.5889C122.032 13.6208 121.83 13.6495 121.632 13.6749C121.438 13.6972 121.28 13.7163 121.159 13.7323C120.866 13.7705 120.592 13.8326 120.337 13.9186C120.086 14.0014 119.882 14.1272 119.726 14.296C119.573 14.4616 119.497 14.6877 119.497 14.9744C119.497 15.3661 119.642 15.6623 119.931 15.863C120.224 16.0604 120.595 16.1592 121.045 16.1592ZM129.485 9.66193V10.6174H125.682V9.66193H129.485ZM126.791 7.90385H127.918V14.8979C127.918 15.2164 127.964 15.4553 128.057 15.6146C128.152 15.7706 128.273 15.8757 128.42 15.9299C128.569 15.9808 128.727 16.0063 128.893 16.0063C129.017 16.0063 129.119 15.9999 129.198 15.9872C129.278 15.9713 129.342 15.9585 129.389 15.949L129.619 16.9618C129.542 16.9904 129.436 17.0191 129.299 17.0478C129.162 17.0796 128.988 17.0955 128.778 17.0955C128.459 17.0955 128.147 17.0271 127.842 16.8901C127.539 16.7532 127.287 16.5446 127.087 16.2643C126.889 15.984 126.791 15.6305 126.791 15.2037V7.90385ZM134.179 17.1529C133.472 17.1529 132.862 16.9968 132.349 16.6847C131.839 16.3694 131.446 15.9299 131.169 15.3661C130.895 14.7992 130.758 14.1399 130.758 13.3883C130.758 12.6367 130.895 11.9742 131.169 11.4009C131.446 10.8244 131.831 10.3754 132.325 10.0537C132.822 9.72882 133.402 9.56638 134.064 9.56638C134.446 9.56638 134.824 9.63008 135.196 9.75748C135.569 9.88488 135.908 10.0919 136.214 10.3785C136.52 10.662 136.763 11.0378 136.945 11.506C137.126 11.9742 137.217 12.5507 137.217 13.2354V13.7132H131.561V12.7386H136.071C136.071 12.3245 135.988 11.9551 135.822 11.6302C135.66 11.3054 135.427 11.049 135.125 10.8611C134.825 10.6731 134.472 10.5792 134.064 10.5792C133.615 10.5792 133.226 10.6907 132.898 10.9136C132.574 11.1334 132.324 11.42 132.148 11.7735C131.973 12.1271 131.886 12.5061 131.886 12.9106V13.5603C131.886 14.1145 131.981 14.5842 132.172 14.9696C132.367 15.3518 132.636 15.6432 132.98 15.8439C133.324 16.0413 133.723 16.1401 134.179 16.1401C134.475 16.1401 134.742 16.0987 134.981 16.0159C135.223 15.9299 135.432 15.8025 135.607 15.6337C135.782 15.4617 135.918 15.2483 136.013 14.9935L137.103 15.2992C136.988 15.6687 136.795 15.9936 136.524 16.2738C136.254 16.5509 135.919 16.7675 135.521 16.9236C135.123 17.0764 134.676 17.1529 134.179 17.1529ZM144.13 11.3054L143.117 11.592C143.054 11.4232 142.96 11.2592 142.835 11.0999C142.714 10.9375 142.549 10.8037 142.339 10.6986C142.128 10.5935 141.859 10.541 141.531 10.541C141.082 10.541 140.708 10.6445 140.408 10.8515C140.112 11.0553 139.964 11.3149 139.964 11.6302C139.964 11.9105 140.066 12.1318 140.27 12.2943C140.474 12.4567 140.792 12.5921 141.225 12.7004L142.315 12.9679C142.971 13.1271 143.46 13.3708 143.781 13.6988C144.103 14.0237 144.264 14.4425 144.264 14.9553C144.264 15.3757 144.143 15.7515 143.901 16.0827C143.662 16.414 143.327 16.6751 142.897 16.8662C142.468 17.0573 141.967 17.1529 141.397 17.1529C140.649 17.1529 140.029 16.9904 139.539 16.6656C139.048 16.3407 138.738 15.8662 138.607 15.2419L139.678 14.9744C139.779 15.3693 139.972 15.6655 140.256 15.863C140.542 16.0604 140.916 16.1592 141.378 16.1592C141.904 16.1592 142.321 16.0477 142.63 15.8248C142.942 15.5986 143.098 15.3279 143.098 15.0126C143.098 14.7578 143.009 14.5444 142.831 14.3724C142.652 14.1973 142.378 14.0667 142.009 13.9807L140.786 13.694C140.114 13.5348 139.62 13.288 139.305 12.9536C138.993 12.616 138.837 12.1939 138.837 11.6875C138.837 11.2735 138.953 10.9072 139.185 10.5887C139.421 10.2703 139.741 10.0202 140.146 9.83869C140.553 9.65715 141.015 9.56638 141.531 9.56638C142.257 9.56638 142.827 9.72563 143.241 10.0441C143.659 10.3626 143.955 10.783 144.13 11.3054ZM149.152 9.66193V10.6174H145.349V9.66193H149.152ZM146.458 7.90385H147.585V14.8979C147.585 15.2164 147.631 15.4553 147.724 15.6146C147.819 15.7706 147.94 15.8757 148.087 15.9299C148.237 15.9808 148.394 16.0063 148.56 16.0063C148.684 16.0063 148.786 15.9999 148.866 15.9872C148.945 15.9713 149.009 15.9585 149.057 15.949L149.286 16.9618C149.21 16.9904 149.103 17.0191 148.966 17.0478C148.829 17.0796 148.655 17.0955 148.445 17.0955C148.127 17.0955 147.815 17.0271 147.509 16.8901C147.206 16.7532 146.955 16.5446 146.754 16.2643C146.557 15.984 146.458 15.6305 146.458 15.2037V7.90385ZM156.791 17.172C156.326 17.172 155.904 17.0844 155.525 16.9092C155.146 16.7309 154.845 16.4745 154.622 16.1401C154.399 15.8025 154.288 15.3948 154.288 14.9171C154.288 14.4966 154.371 14.1559 154.536 13.8947C154.702 13.6303 154.923 13.4233 155.2 13.2736C155.478 13.1239 155.783 13.0125 156.118 12.9392C156.455 12.8628 156.795 12.8023 157.135 12.7577C157.581 12.7004 157.943 12.6574 158.22 12.6287C158.5 12.5968 158.704 12.5443 158.831 12.471C158.962 12.3978 159.027 12.2704 159.027 12.0888V12.0506C159.027 11.5793 158.898 11.213 158.64 10.9518C158.385 10.6907 157.998 10.5601 157.479 10.5601C156.941 10.5601 156.519 10.6779 156.213 10.9136C155.907 11.1493 155.693 11.4009 155.568 11.6684L154.498 11.2862C154.689 10.8404 154.944 10.4932 155.263 10.2448C155.584 9.99316 155.935 9.81799 156.314 9.71926C156.696 9.61734 157.072 9.56638 157.441 9.56638C157.677 9.56638 157.947 9.59505 158.253 9.65238C158.562 9.70652 158.86 9.81959 159.147 9.99157C159.436 10.1636 159.677 10.4231 159.868 10.7703C160.059 11.1174 160.155 11.5824 160.155 12.1653V17H159.027V16.0063H158.97C158.893 16.1655 158.766 16.3359 158.588 16.5175C158.409 16.699 158.172 16.8535 157.876 16.9809C157.58 17.1083 157.218 17.172 156.791 17.172ZM156.963 16.1592C157.409 16.1592 157.785 16.0716 158.091 15.8964C158.4 15.7213 158.632 15.4951 158.788 15.218C158.948 14.9409 159.027 14.6495 159.027 14.3438V13.3119C158.979 13.3692 158.874 13.4217 158.712 13.4695C158.553 13.5141 158.368 13.5539 158.158 13.5889C157.951 13.6208 157.748 13.6495 157.551 13.6749C157.357 13.6972 157.199 13.7163 157.078 13.7323C156.785 13.7705 156.511 13.8326 156.256 13.9186C156.005 14.0014 155.801 14.1272 155.645 14.296C155.492 14.4616 155.415 14.6877 155.415 14.9744C155.415 15.3661 155.56 15.6623 155.85 15.863C156.143 16.0604 156.514 16.1592 156.963 16.1592ZM163.34 12.5857V17H162.212V9.66193H163.302V10.8085H163.397C163.569 10.4359 163.83 10.1365 164.181 9.91036C164.531 9.68104 164.983 9.56638 165.538 9.56638C166.034 9.56638 166.469 9.6683 166.842 9.87214C167.214 10.0728 167.504 10.3785 167.711 10.7894C167.918 11.1971 168.022 11.713 168.022 12.3373V17H166.894V12.4137C166.894 11.8372 166.745 11.3882 166.445 11.0665C166.146 10.7416 165.735 10.5792 165.213 10.5792C164.853 10.5792 164.531 10.6572 164.248 10.8133C163.967 10.9693 163.746 11.1971 163.584 11.4964C163.421 11.7958 163.34 12.1589 163.34 12.5857ZM172.853 17.1529C172.241 17.1529 171.702 16.9984 171.233 16.6895C170.765 16.3773 170.399 15.9378 170.135 15.3709C169.87 14.8008 169.738 14.1272 169.738 13.3501C169.738 12.5793 169.87 11.9105 170.135 11.3436C170.399 10.7767 170.767 10.3387 171.238 10.0298C171.71 9.72085 172.254 9.56638 172.872 9.56638C173.35 9.56638 173.727 9.64601 174.004 9.80525C174.285 9.96131 174.498 10.1397 174.644 10.3403C174.794 10.5378 174.91 10.7002 174.993 10.8276H175.089V7.21591H176.216V17H175.127V15.8725H174.993C174.91 16.0063 174.793 16.1751 174.64 16.3789C174.487 16.5796 174.269 16.7595 173.985 16.9188C173.702 17.0748 173.324 17.1529 172.853 17.1529ZM173.006 16.1401C173.458 16.1401 173.84 16.0222 174.152 15.7865C174.464 15.5477 174.702 15.218 174.864 14.7976C175.027 14.374 175.108 13.8851 175.108 13.331C175.108 12.7832 175.028 12.3038 174.869 11.893C174.71 11.4789 174.474 11.1573 174.162 10.9279C173.85 10.6954 173.464 10.5792 173.006 10.5792C172.528 10.5792 172.13 10.7018 171.811 10.947C171.496 11.1891 171.259 11.5187 171.1 11.936C170.944 12.35 170.866 12.815 170.866 13.331C170.866 13.8533 170.945 14.3278 171.104 14.7546C171.267 15.1782 171.506 15.5158 171.821 15.7674C172.139 16.0159 172.534 16.1401 173.006 16.1401ZM187.419 11.3054L186.406 11.592C186.343 11.4232 186.249 11.2592 186.124 11.0999C186.003 10.9375 185.838 10.8037 185.628 10.6986C185.417 10.5935 185.148 10.541 184.82 10.541C184.371 10.541 183.997 10.6445 183.698 10.8515C183.401 11.0553 183.253 11.3149 183.253 11.6302C183.253 11.9105 183.355 12.1318 183.559 12.2943C183.763 12.4567 184.081 12.5921 184.515 12.7004L185.604 12.9679C186.26 13.1271 186.749 13.3708 187.07 13.6988C187.392 14.0237 187.553 14.4425 187.553 14.9553C187.553 15.3757 187.432 15.7515 187.19 16.0827C186.951 16.414 186.617 16.6751 186.187 16.8662C185.757 17.0573 185.257 17.1529 184.686 17.1529C183.938 17.1529 183.319 16.9904 182.828 16.6656C182.338 16.3407 182.027 15.8662 181.896 15.2419L182.967 14.9744C183.069 15.3693 183.261 15.6655 183.545 15.863C183.831 16.0604 184.206 16.1592 184.667 16.1592C185.193 16.1592 185.61 16.0477 185.919 15.8248C186.231 15.5986 186.387 15.3279 186.387 15.0126C186.387 14.7578 186.298 14.5444 186.12 14.3724C185.941 14.1973 185.667 14.0667 185.298 13.9807L184.075 13.694C183.403 13.5348 182.909 13.288 182.594 12.9536C182.282 12.616 182.126 12.1939 182.126 11.6875C182.126 11.2735 182.242 10.9072 182.475 10.5887C182.71 10.2703 183.03 10.0202 183.435 9.83869C183.842 9.65715 184.304 9.56638 184.82 9.56638C185.546 9.56638 186.117 9.72563 186.531 10.0441C186.948 10.3626 187.244 10.783 187.419 11.3054ZM189.25 17V9.66193H190.339V10.8085H190.435C190.588 10.4168 190.835 10.1126 191.175 9.89602C191.516 9.67626 191.925 9.56638 192.403 9.56638C192.887 9.56638 193.29 9.67626 193.612 9.89602C193.937 10.1126 194.19 10.4168 194.371 10.8085H194.448C194.636 10.4295 194.918 10.1285 195.293 9.90558C195.669 9.67945 196.12 9.56638 196.645 9.56638C197.302 9.56638 197.838 9.77181 198.255 10.1827C198.673 10.5903 198.881 11.2257 198.881 12.0888V17H197.754V12.0888C197.754 11.5474 197.606 11.1604 197.31 10.9279C197.013 10.6954 196.665 10.5792 196.263 10.5792C195.747 10.5792 195.348 10.7353 195.064 11.0474C194.781 11.3563 194.639 11.7481 194.639 12.2226V17H193.492V11.9742C193.492 11.557 193.357 11.221 193.086 10.9662C192.816 10.7082 192.467 10.5792 192.04 10.5792C191.747 10.5792 191.473 10.6572 191.218 10.8133C190.967 10.9693 190.763 11.1859 190.607 11.463C190.454 11.7369 190.378 12.0538 190.378 12.4137V17H189.25ZM203.102 17.172C202.637 17.172 202.215 17.0844 201.836 16.9092C201.457 16.7309 201.156 16.4745 200.933 16.1401C200.71 15.8025 200.599 15.3948 200.599 14.9171C200.599 14.4966 200.682 14.1559 200.847 13.8947C201.013 13.6303 201.234 13.4233 201.511 13.2736C201.788 13.1239 202.094 13.0125 202.429 12.9392C202.766 12.8628 203.105 12.8023 203.446 12.7577C203.892 12.7004 204.253 12.6574 204.531 12.6287C204.811 12.5968 205.015 12.5443 205.142 12.471C205.273 12.3978 205.338 12.2704 205.338 12.0888V12.0506C205.338 11.5793 205.209 11.213 204.951 10.9518C204.696 10.6907 204.309 10.5601 203.79 10.5601C203.252 10.5601 202.83 10.6779 202.524 10.9136C202.218 11.1493 202.003 11.4009 201.879 11.6684L200.809 11.2862C201 10.8404 201.255 10.4932 201.573 10.2448C201.895 9.99316 202.245 9.81799 202.624 9.71926C203.007 9.61734 203.382 9.56638 203.752 9.56638C203.988 9.56638 204.258 9.59505 204.564 9.65238C204.873 9.70652 205.171 9.81959 205.457 9.99157C205.747 10.1636 205.988 10.4231 206.179 10.7703C206.37 11.1174 206.465 11.5824 206.465 12.1653V17H205.338V16.0063H205.281C205.204 16.1655 205.077 16.3359 204.898 16.5175C204.72 16.699 204.483 16.8535 204.187 16.9809C203.89 17.1083 203.529 17.172 203.102 17.172ZM203.274 16.1592C203.72 16.1592 204.096 16.0716 204.402 15.8964C204.711 15.7213 204.943 15.4951 205.099 15.218C205.258 14.9409 205.338 14.6495 205.338 14.3438V13.3119C205.29 13.3692 205.185 13.4217 205.023 13.4695C204.863 13.5141 204.679 13.5539 204.468 13.5889C204.261 13.6208 204.059 13.6495 203.862 13.6749C203.667 13.6972 203.51 13.7163 203.389 13.7323C203.096 13.7705 202.822 13.8326 202.567 13.9186C202.315 14.0014 202.112 14.1272 201.956 14.296C201.803 14.4616 201.726 14.6877 201.726 14.9744C201.726 15.3661 201.871 15.6623 202.161 15.863C202.454 16.0604 202.825 16.1592 203.274 16.1592ZM208.523 17V9.66193H209.613V10.7703H209.689C209.823 10.4072 210.065 10.1126 210.415 9.88647C210.765 9.66034 211.16 9.54727 211.6 9.54727C211.683 9.54727 211.786 9.54887 211.91 9.55205C212.035 9.55524 212.129 9.56001 212.192 9.56638V10.713C212.154 10.7034 212.066 10.6891 211.93 10.67C211.796 10.6477 211.654 10.6365 211.504 10.6365C211.148 10.6365 210.829 10.7114 210.549 10.8611C210.272 11.0076 210.052 11.2114 209.89 11.4726C209.73 11.7305 209.651 12.0251 209.651 12.3564V17H208.523ZM217.18 9.66193V10.6174H213.377V9.66193H217.18ZM214.485 7.90385H215.613V14.8979C215.613 15.2164 215.659 15.4553 215.751 15.6146C215.847 15.7706 215.968 15.8757 216.115 15.9299C216.264 15.9808 216.422 16.0063 216.587 16.0063C216.712 16.0063 216.814 15.9999 216.893 15.9872C216.973 15.9713 217.037 15.9585 217.084 15.949L217.314 16.9618C217.237 16.9904 217.131 17.0191 216.994 17.0478C216.857 17.0796 216.683 17.0955 216.473 17.0955C216.154 17.0955 215.842 17.0271 215.536 16.8901C215.234 16.7532 214.982 16.5446 214.782 16.2643C214.584 15.984 214.485 15.6305 214.485 15.2037V7.90385ZM221.874 17.1529C221.167 17.1529 220.557 16.9968 220.044 16.6847C219.534 16.3694 219.141 15.9299 218.864 15.3661C218.59 14.7992 218.453 14.1399 218.453 13.3883C218.453 12.6367 218.59 11.9742 218.864 11.4009C219.141 10.8244 219.526 10.3754 220.02 10.0537C220.517 9.72882 221.097 9.56638 221.759 9.56638C222.141 9.56638 222.519 9.63008 222.891 9.75748C223.264 9.88488 223.603 10.0919 223.909 10.3785C224.215 10.662 224.458 11.0378 224.64 11.506C224.821 11.9742 224.912 12.5507 224.912 13.2354V13.7132H219.256V12.7386H223.766C223.766 12.3245 223.683 11.9551 223.517 11.6302C223.355 11.3054 223.122 11.049 222.82 10.8611C222.52 10.6731 222.167 10.5792 221.759 10.5792C221.31 10.5792 220.921 10.6907 220.593 10.9136C220.268 11.1334 220.018 11.42 219.843 11.7735C219.668 12.1271 219.581 12.5061 219.581 12.9106V13.5603C219.581 14.1145 219.676 14.5842 219.867 14.9696C220.061 15.3518 220.331 15.6432 220.675 15.8439C221.019 16.0413 221.418 16.1401 221.874 16.1401C222.17 16.1401 222.437 16.0987 222.676 16.0159C222.918 15.9299 223.127 15.8025 223.302 15.6337C223.477 15.4617 223.613 15.2483 223.708 14.9935L224.797 15.2992C224.683 15.6687 224.49 15.9936 224.219 16.2738C223.949 16.5509 223.614 16.7675 223.216 16.9236C222.818 17.0764 222.371 17.1529 221.874 17.1529ZM231.825 11.3054L230.812 11.592C230.748 11.4232 230.655 11.2592 230.53 11.0999C230.409 10.9375 230.244 10.8037 230.033 10.6986C229.823 10.5935 229.554 10.541 229.226 10.541C228.777 10.541 228.403 10.6445 228.103 10.8515C227.807 11.0553 227.659 11.3149 227.659 11.6302C227.659 11.9105 227.761 12.1318 227.965 12.2943C228.169 12.4567 228.487 12.5921 228.92 12.7004L230.01 12.9679C230.666 13.1271 231.155 13.3708 231.476 13.6988C231.798 14.0237 231.959 14.4425 231.959 14.9553C231.959 15.3757 231.838 15.7515 231.596 16.0827C231.357 16.414 231.022 16.6751 230.592 16.8662C230.162 17.0573 229.662 17.1529 229.092 17.1529C228.344 17.1529 227.724 16.9904 227.234 16.6656C226.743 16.3407 226.433 15.8662 226.302 15.2419L227.372 14.9744C227.474 15.3693 227.667 15.6655 227.951 15.863C228.237 16.0604 228.611 16.1592 229.073 16.1592C229.599 16.1592 230.016 16.0477 230.325 15.8248C230.637 15.5986 230.793 15.3279 230.793 15.0126C230.793 14.7578 230.704 14.5444 230.526 14.3724C230.347 14.1973 230.073 14.0667 229.704 13.9807L228.481 13.694C227.809 13.5348 227.315 13.288 227 12.9536C226.688 12.616 226.532 12.1939 226.532 11.6875C226.532 11.2735 226.648 10.9072 226.88 10.5887C227.116 10.2703 227.436 10.0202 227.841 9.83869C228.248 9.65715 228.71 9.56638 229.226 9.56638C229.952 9.56638 230.522 9.72563 230.936 10.0441C231.354 10.3626 231.65 10.783 231.825 11.3054ZM236.847 9.66193V10.6174H233.044V9.66193H236.847ZM234.153 7.90385H235.28V14.8979C235.28 15.2164 235.326 15.4553 235.419 15.6146C235.514 15.7706 235.635 15.8757 235.782 15.9299C235.932 15.9808 236.089 16.0063 236.255 16.0063C236.379 16.0063 236.481 15.9999 236.561 15.9872C236.64 15.9713 236.704 15.9585 236.752 15.949L236.981 16.9618C236.905 16.9904 236.798 17.0191 236.661 17.0478C236.524 17.0796 236.35 17.0955 236.14 17.0955C235.822 17.0955 235.51 17.0271 235.204 16.8901C234.901 16.7532 234.65 16.5446 234.449 16.2643C234.251 15.984 234.153 15.6305 234.153 15.2037V7.90385ZM242.327 17V9.66193H243.416V10.8085H243.512C243.665 10.4168 243.911 10.1126 244.252 9.89602C244.593 9.67626 245.002 9.56638 245.48 9.56638C245.964 9.56638 246.367 9.67626 246.689 9.89602C247.013 10.1126 247.267 10.4168 247.448 10.8085H247.525C247.713 10.4295 247.994 10.1285 248.37 9.90558C248.746 9.67945 249.197 9.56638 249.722 9.56638C250.378 9.56638 250.915 9.77181 251.332 10.1827C251.749 10.5903 251.958 11.2257 251.958 12.0888V17H250.831V12.0888C250.831 11.5474 250.683 11.1604 250.386 10.9279C250.09 10.6954 249.741 10.5792 249.34 10.5792C248.824 10.5792 248.424 10.7353 248.141 11.0474C247.857 11.3563 247.716 11.7481 247.716 12.2226V17H246.569V11.9742C246.569 11.557 246.434 11.221 246.163 10.9662C245.892 10.7082 245.544 10.5792 245.117 10.5792C244.824 10.5792 244.55 10.6572 244.295 10.8133C244.044 10.9693 243.84 11.1859 243.684 11.463C243.531 11.7369 243.454 12.0538 243.454 12.4137V17H242.327ZM257.001 17.1529C256.338 17.1529 255.757 16.9952 255.257 16.6799C254.76 16.3646 254.371 15.9235 254.091 15.3566C253.814 14.7897 253.676 14.1272 253.676 13.3692C253.676 12.6048 253.814 11.9376 254.091 11.3675C254.371 10.7974 254.76 10.3547 255.257 10.0393C255.757 9.72404 256.338 9.56638 257.001 9.56638C257.663 9.56638 258.243 9.72404 258.74 10.0393C259.24 10.3547 259.628 10.7974 259.905 11.3675C260.186 11.9376 260.326 12.6048 260.326 13.3692C260.326 14.1272 260.186 14.7897 259.905 15.3566C259.628 15.9235 259.24 16.3646 258.74 16.6799C258.243 16.9952 257.663 17.1529 257.001 17.1529ZM257.001 16.1401C257.504 16.1401 257.918 16.0111 258.243 15.7531C258.568 15.4951 258.808 15.1559 258.964 14.7355C259.12 14.3151 259.198 13.8597 259.198 13.3692C259.198 12.8787 259.12 12.4217 258.964 11.9981C258.808 11.5745 258.568 11.2321 258.243 10.9709C257.918 10.7098 257.504 10.5792 257.001 10.5792C256.497 10.5792 256.083 10.7098 255.758 10.9709C255.434 11.2321 255.193 11.5745 255.037 11.9981C254.881 12.4217 254.803 12.8787 254.803 13.3692C254.803 13.8597 254.881 14.3151 255.037 14.7355C255.193 15.1559 255.434 15.4951 255.758 15.7531C256.083 16.0111 256.497 16.1401 257.001 16.1401ZM264.818 17.1529C264.206 17.1529 263.666 16.9984 263.198 16.6895C262.73 16.3773 262.364 15.9378 262.099 15.3709C261.835 14.8008 261.703 14.1272 261.703 13.3501C261.703 12.5793 261.835 11.9105 262.099 11.3436C262.364 10.7767 262.731 10.3387 263.203 10.0298C263.674 9.72085 264.219 9.56638 264.837 9.56638C265.314 9.56638 265.692 9.64601 265.969 9.80525C266.249 9.96131 266.463 10.1397 266.609 10.3403C266.759 10.5378 266.875 10.7002 266.958 10.8276H267.053V7.21591H268.181V17H267.092V15.8725H266.958C266.875 16.0063 266.757 16.1751 266.604 16.3789C266.451 16.5796 266.233 16.7595 265.95 16.9188C265.666 17.0748 265.289 17.1529 264.818 17.1529ZM264.97 16.1401C265.423 16.1401 265.805 16.0222 266.117 15.7865C266.429 15.5477 266.666 15.218 266.829 14.7976C266.991 14.374 267.073 13.8851 267.073 13.331C267.073 12.7832 266.993 12.3038 266.834 11.893C266.674 11.4789 266.439 11.1573 266.127 10.9279C265.814 10.6954 265.429 10.5792 264.97 10.5792C264.493 10.5792 264.095 10.7018 263.776 10.947C263.461 11.1891 263.224 11.5187 263.064 11.936C262.908 12.35 262.83 12.815 262.83 13.331C262.83 13.8533 262.91 14.3278 263.069 14.7546C263.232 15.1782 263.47 15.5158 263.786 15.7674C264.104 16.0159 264.499 16.1401 264.97 16.1401ZM273.479 17.1529C272.772 17.1529 272.162 16.9968 271.649 16.6847C271.14 16.3694 270.746 15.9299 270.469 15.3661C270.195 14.7992 270.058 14.1399 270.058 13.3883C270.058 12.6367 270.195 11.9742 270.469 11.4009C270.746 10.8244 271.132 10.3754 271.625 10.0537C272.122 9.72882 272.702 9.56638 273.364 9.56638C273.747 9.56638 274.124 9.63008 274.497 9.75748C274.869 9.88488 275.208 10.0919 275.514 10.3785C275.82 10.662 276.064 11.0378 276.245 11.506C276.427 11.9742 276.517 12.5507 276.517 13.2354V13.7132H270.861V12.7386H275.371C275.371 12.3245 275.288 11.9551 275.122 11.6302C274.96 11.3054 274.728 11.049 274.425 10.8611C274.126 10.6731 273.772 10.5792 273.364 10.5792C272.915 10.5792 272.527 10.6907 272.199 10.9136C271.874 11.1334 271.624 11.42 271.449 11.7735C271.273 12.1271 271.186 12.5061 271.186 12.9106V13.5603C271.186 14.1145 271.281 14.5842 271.473 14.9696C271.667 15.3518 271.936 15.6432 272.28 15.8439C272.624 16.0413 273.024 16.1401 273.479 16.1401C273.775 16.1401 274.043 16.0987 274.282 16.0159C274.524 15.9299 274.732 15.8025 274.907 15.6337C275.083 15.4617 275.218 15.2483 275.314 14.9935L276.403 15.2992C276.288 15.6687 276.095 15.9936 275.825 16.2738C275.554 16.5509 275.22 16.7675 274.821 16.9236C274.423 17.0764 273.976 17.1529 273.479 17.1529ZM279.36 7.21591V17H278.233V7.21591H279.36ZM288.19 17.1529C287.527 17.1529 286.946 16.9952 286.446 16.6799C285.949 16.3646 285.561 15.9235 285.28 15.3566C285.003 14.7897 284.865 14.1272 284.865 13.3692C284.865 12.6048 285.003 11.9376 285.28 11.3675C285.561 10.7974 285.949 10.3547 286.446 10.0393C286.946 9.72404 287.527 9.56638 288.19 9.56638C288.852 9.56638 289.432 9.72404 289.929 10.0393C290.429 10.3547 290.817 10.7974 291.094 11.3675C291.375 11.9376 291.515 12.6048 291.515 13.3692C291.515 14.1272 291.375 14.7897 291.094 15.3566C290.817 15.9235 290.429 16.3646 289.929 16.6799C289.432 16.9952 288.852 17.1529 288.19 17.1529ZM288.19 16.1401C288.693 16.1401 289.107 16.0111 289.432 15.7531C289.757 15.4951 289.997 15.1559 290.153 14.7355C290.309 14.3151 290.387 13.8597 290.387 13.3692C290.387 12.8787 290.309 12.4217 290.153 11.9981C289.997 11.5745 289.757 11.2321 289.432 10.9709C289.107 10.7098 288.693 10.5792 288.19 10.5792C287.687 10.5792 287.273 10.7098 286.948 10.9709C286.623 11.2321 286.382 11.5745 286.226 11.9981C286.07 12.4217 285.992 12.8787 285.992 13.3692C285.992 13.8597 286.07 14.3151 286.226 14.7355C286.382 15.1559 286.623 15.4951 286.948 15.7531C287.273 16.0111 287.687 16.1401 288.19 16.1401ZM296.657 7.21591V17H295.472V8.45803H295.414L293.026 10.0441V8.84022L295.472 7.21591H296.657Z" fill="white"/>
<defs>
<clipPath id="clip0_1285_1006">
<rect width="24" height="24" fill="white" transform="translate(0.699951)"/>
</clipPath>
</defs>
</svg>
